<?xml version="1.0" encoding="utf-8"?>
<!-- Generator: Adobe Illustrator 24.1.2, SVG Export Plug-In . SVG Version: 6.00 Build 0)  -->
<svg version="1.1" id="Layer_1" xmlns="http://www.w3.org/2000/svg" xmlns:xlink="http://www.w3.org/1999/xlink" x="0px" y="0px"
	 viewBox="0 0 440.7 206.4" style="enable-background:new 0 0 440.7 206.4;" xml:space="preserve">
<style type="text/css">
	.st0{fill:#CCCCCC;}
	.st1{fill:url(#SVGID_1_);}
	.st2{fill:url(#SVGID_2_);}
	.st3{fill:url(#SVGID_3_);}
</style>
<path class="st0" d="M309.7,175.5c-10.4,4.1-21.3,6.5-32.5,7.1c-4.5,0.2-9,0.2-13.5-0.2c-3.7-0.3-7.3-0.7-10.9-1.4l-0.6-0.1
	c-0.8-0.2-1.6-0.3-2.4-0.5l-0.4-0.1c-2.5-0.5-5-1.2-7.4-2l-0.8-0.2c-0.7-0.2-1.4-0.4-2.1-0.7l-1-0.3c-0.7-0.2-1.4-0.5-2.1-0.7
	l-0.5-0.1c-1.3-0.5-2.6-1-3.9-1.6l-1.1-0.5l-1.7-0.8l-1.3-0.6l-1.6-0.7l-1.5-0.8c-0.5-0.3-1.1-0.5-1.6-0.8c-0.8-0.4-1.6-0.9-2.4-1.3
	l-1.1-0.7l-1.7-1l-1.1-0.7c-0.6-0.4-1.3-0.8-1.9-1.2l-0.8-0.5c-0.9-0.6-1.8-1.2-2.7-1.9l-0.4-0.3c-0.8-0.6-1.5-1.1-2.3-1.7l-0.7-0.5
	c-0.7-0.5-1.4-1.1-2.1-1.7l-0.5-0.4c-1.7-1.5-3.5-3-5.1-4.6l-0.2-0.2c-0.8-0.7-1.5-1.4-2.3-2.2l-0.3-0.3c-2.5-2.5-4.8-5.2-7-8
	l-0.1-0.1c-3.1-3.9-5.9-8.1-8.4-12.5c-1.3-2.5-2.4-5-3.3-7.6c-0.3-1.3-0.7-2.5-0.9-3.8v-0.1c-1.1-4.9-1.7-9.9-2.1-14.9
	c-0.4-15.6,5.3-30.7,15.8-42.2c0.5-0.5,1-1,1.5-1.5l0,0c1.9-1.9,4-3.7,6.1-5.3L182,50.8l-29.9,112.4c17.5,24.4,45,40,74.7,42.6
	c0.4,0,0.8,0.1,1.1,0.1c0.5,0,0.9,0.1,1.4,0.1c0.6,0,1.3,0.1,1.9,0.1c0,0,0,0,0.1,0c13.3,0.6,26.6-1.3,39.2-5.8c-0.1,0-0.2,0-0.3,0
	C285.2,195.2,298.6,186.7,309.7,175.5z"/>
<circle class="st0" cx="236.7" cy="103.5" r="21.1"/>
<linearGradient id="SVGID_1_" gradientUnits="userSpaceOnUse" x1="149.0202" y1="656.4063" x2="285.287" y2="822.7541" gradientTransform="matrix(1 0 0 1 0 -636)">
	<stop  offset="0" style="stop-color:#66CCFF"/>
	<stop  offset="1" style="stop-color:#0066FF"/>
</linearGradient>
<path class="st1" d="M236.7,0.5c-0.7,0-1.5,0-2.2,0.1c-0.2,0-0.4,0-0.6,0.1V0.6c-23.7,0.4-46.5,9-64.6,24.6
	c-5.6,4.8-10.7,10.2-15.2,16.1c-0.7,0.9-1.3,1.7-1.9,2.6c-0.1,0.1-0.2,0.2-0.3,0.4c-32.6,46.7-21.3,111,25.4,143.6
	c13.8,9.6,29.7,15.8,46.4,17.8c-9.6-5.7-18.2-12.9-25.5-21.4c-2.9-3.4-5.6-7.1-8.1-10.8c-2-3.1-3.8-6.2-5.5-9.5l-0.3-0.5
	c-0.4-0.7-0.7-1.5-1.1-2.2c-0.1-0.1-0.1-0.3-0.2-0.4c-1.1-2.4-2.1-4.7-3-7.1l-0.3-0.7c-0.3-0.7-0.5-1.4-0.8-2.1l-0.3-0.9
	c-0.2-0.7-0.5-1.4-0.7-2.1l-0.2-0.5c-0.4-1.3-0.8-2.7-1.1-4c-0.1-0.4-0.2-0.8-0.3-1.1c-0.2-0.6-0.3-1.2-0.4-1.8s-0.2-0.9-0.3-1.4
	c-0.1-0.5-0.3-1.1-0.4-1.7c-0.1-0.6-0.2-1.1-0.3-1.7c-0.1-0.6-0.2-1.2-0.3-1.7c-0.1-0.9-0.3-1.8-0.4-2.7l-0.2-1.3
	c-0.1-0.7-0.2-1.3-0.2-2c0-0.4-0.1-0.9-0.1-1.3c-0.1-0.8-0.1-1.5-0.2-2.3c0-0.3-0.1-0.7-0.1-1c-0.1-1.1-0.1-2.2-0.2-3.3
	c0-0.2,0-0.3,0-0.5c0-1,0-1.9,0-2.9c0-0.3,0-0.6,0-0.8c0-0.9,0-1.8,0.1-2.7v-0.7c0.1-2.3,0.3-4.6,0.5-6.8c0-0.1,0.1-0.2,0.1-0.3
	c0.1-1,0.3-2.1,0.4-3.2c0-0.1,0.1-0.2,0.1-0.4c0.5-3.5,1.2-7,2.1-10.4v-0.1c1.3-4.9,2.9-9.6,4.8-14.2c9.6-20.5,29.8-33.8,52.4-34.5
	v-0.1c0.4,0,0.8,0.1,1.1,0.1c0.3,0,0.6,0,0.9,0s0.6,0,0.9,0c11.7,0,21.1-9.4,21.1-21.1C257.8,9.9,248.3,0.5,236.7,0.5z"/>
<linearGradient id="SVGID_2_" gradientUnits="userSpaceOnUse" x1="270.3104" y1="651.383" x2="319.1128" y2="727.4604" gradientTransform="matrix(1 0 0 1 0 -636)">
	<stop  offset="0" style="stop-color:#66CCFF"/>
	<stop  offset="1" style="stop-color:#0066FF"/>
</linearGradient>
<circle class="st2" cx="283.6" cy="36.1" r="21.1"/>
<linearGradient id="SVGID_3_" gradientUnits="userSpaceOnUse" x1="285.7844" y1="664.3184" x2="341.321" y2="756.0047" gradientTransform="matrix(1 0 0 1 0 -636)">
	<stop  offset="0" style="stop-color:#66CCFF"/>
	<stop  offset="1" style="stop-color:#0066FF"/>
</linearGradient>
<circle class="st3" cx="314" cy="74.9" r="21.1"/>
<circle class="st0" cx="275.3" cy="90" r="10.7"/>
</svg>
