<?xml version="1.0" encoding="UTF-8" standalone="no"?>
<!-- Created with Inkscape (http://www.inkscape.org/) -->

<svg
   xmlns:dc="http://purl.org/dc/elements/1.1/"
   xmlns:cc="http://creativecommons.org/ns#"
   xmlns:rdf="http://www.w3.org/1999/02/22-rdf-syntax-ns#"
   xmlns:svg="http://www.w3.org/2000/svg"
   xmlns="http://www.w3.org/2000/svg"
   xmlns:xlink="http://www.w3.org/1999/xlink"
   xmlns:sodipodi="http://sodipodi.sourceforge.net/DTD/sodipodi-0.dtd"
   xmlns:inkscape="http://www.inkscape.org/namespaces/inkscape"
   width="200mm"
   height="200mm"
   viewBox="0 0 210 297"
   version="1.1"
   id="svg8"
   inkscape:version="0.92.4 (unknown)"
   sodipodi:docname="logo.svg"
   inkscape:export-xdpi="83.184998"
   inkscape:export-ydpi="83.184998">
  <sodipodi:namedview
     pagecolor="#ffffff"
     bordercolor="#666666"
     borderopacity="1"
     objecttolerance="10"
     gridtolerance="10"
     guidetolerance="10"
     inkscape:pageopacity="0"
     inkscape:pageshadow="2"
     inkscape:window-width="1920"
     inkscape:window-height="1015"
     id="namedview18"
     showgrid="false"
     inkscape:zoom="0.31220833"
     inkscape:cx="377.95276"
     inkscape:cy="377.95276"
     inkscape:window-x="0"
     inkscape:window-y="0"
     inkscape:window-maximized="1"
     inkscape:current-layer="layer2" />
  <defs
     id="defs2">
    <linearGradient
       inkscape:collect="always"
       id="linearGradient893">
      <stop
         style="stop-color:#d6d6d6;stop-opacity:1"
         offset="0"
         id="stop889" />
      <stop
         style="stop-color:#bbbbbb;stop-opacity:1"
         offset="1"
         id="stop891" />
    </linearGradient>
    <linearGradient
       id="linearGradient1084"
       inkscape:collect="always">
      <stop
         id="stop1080"
         offset="0"
         style="stop-color:#0044aa;stop-opacity:1" />
      <stop
         id="stop1082"
         offset="1"
         style="stop-color:#0066ff;stop-opacity:1" />
    </linearGradient>
    <linearGradient
       inkscape:collect="always"
       xlink:href="#linearGradient1084"
       id="linearGradient1072"
       gradientUnits="userSpaceOnUse"
       gradientTransform="matrix(2.4538443,0,0,2.4538443,-161.1821,-368.74681)"
       x1="110.38231"
       y1="259.58228"
       x2="110.38231"
       y2="154.43843" />
    <linearGradient
       inkscape:collect="always"
       xlink:href="#linearGradient893"
       id="linearGradient895"
       x1="154.51666"
       y1="200.95625"
       x2="154.51666"
       y2="154.125"
       gradientUnits="userSpaceOnUse"
       gradientTransform="matrix(5.7237392,0,0,5.7237392,-814.97941,-855.91753)" />
    <linearGradient
       inkscape:collect="always"
       xlink:href="#linearGradient1084"
       id="linearGradient824"
       gradientUnits="userSpaceOnUse"
       gradientTransform="matrix(2.4538443,0,0,2.4538443,-161.1821,-368.74681)"
       x1="110.38231"
       y1="259.58228"
       x2="110.38231"
       y2="154.43843" />
  </defs>
  <metadata
     id="metadata5">
    <rdf:RDF>
      <cc:Work
         rdf:about="DynamicData logo">
        <dc:format>image/svg+xml</dc:format>
        <dc:type
           rdf:resource="http://purl.org/dc/dcmitype/StillImage" />
        <dc:title />
      </cc:Work>
    </rdf:RDF>
  </metadata>
  <g
     inkscape:groupmode="layer"
     id="layer2"
     inkscape:label="Layer 2"
     style="opacity:1">
    <path
       style="opacity:1;fill:url(#linearGradient895);fill-opacity:1;stroke:none;stroke-width:0.68707609;stroke-opacity:1"
       d="m 20.368602,39.549382 a 30.673039,30.673033 0 0 0 -30.673061,30.673066 v 53.064472 8.28168 0.0178 61.32206 0.012 12.82646 48.52096 a 30.673039,30.673033 0 0 0 30.673061,30.67351 h 61.346173 a 122.69217,122.69216 0 0 0 64.030635,-18.21438 30.673042,30.673039 0 0 1 -2.68574,-12.45868 30.673042,30.673039 0 0 1 30.6731,-30.67306 30.673042,30.673039 0 0 1 12.51317,2.69463 122.69217,122.69216 0 0 0 18.1599,-64.04405 A 122.69217,122.69216 0 0 0 81.714775,39.553526 Z m 61.346173,61.346128 a 30.67304,30.673033 0 0 1 2.610934,0.13049 61.346081,61.34607 0 0 1 58.735201,61.21684 61.346081,61.34607 0 0 1 -61.346135,61.34613 30.67304,30.673033 0 0 1 -30.673059,-30.67301 v -23.00512 -15.33591 -23.00512 a 30.67304,30.673033 0 0 1 30.673059,-30.67434 z"
       id="path10-6-8-6-6-6-2-8"
       inkscape:connector-curvature="0" />
    <path
       style="opacity:1;fill:url(#linearGradient1072);fill-opacity:1;fill-rule:nonzero;stroke:none;stroke-width:0.68707609;stroke-opacity:1"
       d="m 33.881023,14.878019 c -16.940318,0 -30.673111,13.732792 -30.673111,30.673062 0,20.449138 0,40.898299 0,61.347409 0,20.4452 0,40.89035 0,61.33552 v 0.012 61.34609 c 0,16.94033 13.732793,30.67311 30.673111,30.67311 h 14.479915 v -0.0178 c 0.354309,0.005 0.708424,0.012 1.062685,0.0178 46.724025,-0.0287 86.008687,-35.07101 91.355977,-81.48806 -10.27393,11.32011 -24.40435,18.39644 -39.62304,19.84261 v -0.0401 c -1.969792,0.20821 -3.948662,0.32164 -5.929472,0.33882 -14.698171,-0.012 -27.322216,-10.448 -30.097318,-24.88182 -0.374892,-1.90739 -0.56779,-3.84608 -0.575676,-5.78996 v -23.00632 -15.33592 -23.00512 c 0,-16.940274 13.732727,-30.67311 30.672994,-30.67311 0.87179,0.0053 1.74295,0.0515 2.61097,0.130487 11.002292,0.50828 21.664862,3.968856 30.868342,10.018954 v -0.09915 c 0.58967,0.423566 1.17555,0.852059 1.75752,1.28586 0.7972,0.55407 1.58106,1.126938 2.35102,1.718209 25.11017,18.47441 42.24633,45.81454 47.92757,76.46652 0.0978,0.48081 0.19224,0.96234 0.28392,1.44433 2.46298,-9.68223 3.7341,-19.62892 3.78522,-29.61934 -0.0226,-15.92579 -3.14399,-31.69493 -9.19221,-46.427445 17.38948,21.743615 26.86642,48.755125 26.87397,76.597105 -0.0515,13.67968 -2.38773,27.25469 -6.91599,40.16324 2.56285,-3.64791 4.92494,-7.43273 7.07582,-11.33769 1.41119,-2.58136 2.72911,-5.21256 3.95125,-7.88862 0.54891,-1.17588 1.07887,-2.36042 1.59011,-3.55315 0.99957,-2.38998 1.92318,-4.81107 2.76944,-7.2596 0.44415,-1.26779 0.8672,-2.54279 1.26932,-3.82444 l 0.001,-0.005 c 0.0965,-0.28733 0.1922,-0.57535 0.28674,-0.86357 0.64404,-2.14438 1.22923,-4.30595 1.75501,-6.48227 0.48767,-1.9473 0.92724,-3.90611 1.31874,-5.87492 0.34801,-1.83656 0.65423,-3.68077 0.91804,-5.5313 0.35373,-2.34306 0.63976,-4.69587 0.85726,-7.05548 0.17225,-1.94863 0.29761,-3.90119 0.37661,-5.8559 0.0881,-1.59856 0.14475,-3.1988 0.16996,-4.79959 C 217.91634,69.81381 162.98586,14.882742 95.225158,14.882119 Z"
       id="path10-6-8-6-2-0-9"
       inkscape:connector-curvature="0"
       sodipodi:nodetypes="cccccccccccccccccccccccccccccccccccccccccccccc" />
    <circle
       style="opacity:1;fill:url(#linearGradient824);fill-opacity:1;stroke:none;stroke-width:1.22692204;stroke-miterlimit:4;stroke-dasharray:none;stroke-opacity:1;paint-order:stroke fill markers"
       id="path6001-5-9-2-2-6-9-2-7"
       cx="173.73218"
       cy="254.2626"
       r="15.336526" />
  </g>
</svg>
